# xmcd CD database file
#
# Track frame offsets:
#	150
#	16526
#	36061
#	54669
#	83954
#	95081
#	105374
#	120405
#	137425
#	159045
#	174003
#	188906
#	217354
#
# Disc length: 4209 seconds
#
# Revision: 0
# Processed by: cddbd v1.5.2PL0 Copyright (c) Steve Scherf et al.
# Submitted via: CDex 1.51
#
DISCID=99106f0d
DTITLE=Beverly Guitar Watkins - Don't Mess With Miss Watkins
DYEAR=2007
DGENRE=Blues
TTITLE0=Too Many Times
TTITLE1=Miz Dr. Feelgood
TTITLE2=Impeach Me Baby
TTITLE3=Red Mama Blues
TTITLE4=The Right String But The Wrong Yoyo
TTITLE5=Right Don't Wrong Nobody
TTITLE6=Get Out On The Floor
TTITLE7=Late Bus Blues
TTITLE8=Back In Business
TTITLE9=Sugar Baby Swing
TTITLE10=Baghdad Blues
TTITLE11=Jesus Walked The Water
TTITLE12=Video Program Live at the New Morning (BEV.MPG)
EXTD=YEAR: 2007
EXTT0=
EXTT1=
EXTT2=
EXTT3=
EXTT4=
EXTT5=
EXTT6=
EXTT7=
EXTT8=
EXTT9=
EXTT10=
EXTT11=
EXTT12=
PLAYORDER=
